<svg width="65" height="58" viewBox="0 0 65 58" fill="none" xmlns="http://www.w3.org/2000/svg">
<path d="M48.4905 25.3113C43.7075 25.0383 39.6915 21.4963 36.5005 18.2283C33.3235 14.9743 30.6415 11.0703 29.4515 6.63934C29.4345 6.57634 29.3965 6.53934 29.3525 6.52134C29.2255 6.43134 29.0125 6.45134 28.9545 6.64634C27.6575 10.9883 25.0605 14.8443 21.7285 17.8903C19.9605 19.5063 17.9995 20.9293 15.9705 22.1983C13.9735 23.4483 11.8105 24.8093 9.57847 25.5903C9.11447 25.7533 9.41748 26.4493 9.83748 26.2053C9.88048 26.1803 9.92549 26.1583 9.96849 26.1343C13.1695 27.5273 16.2685 29.0513 19.0225 31.2373C21.8215 33.4583 24.2935 36.1743 26.1385 39.2393C27.2105 41.0213 28.0025 42.8963 28.7035 44.8493C28.9055 45.4123 29.7825 45.1893 29.6115 44.5993C29.6035 44.5723 29.5935 44.5453 29.5855 44.5183C31.8425 35.6243 39.3725 27.9193 48.4335 25.9963C48.4525 25.9973 48.4715 26.0013 48.4915 26.0023C48.9335 26.0303 48.9335 25.3373 48.4905 25.3113Z" fill="#FFC938"/>
<path d="M64.0665 14.3223C61.8025 14.1933 59.9005 12.5163 58.3895 10.9693C56.8855 9.42834 55.6155 7.58034 55.0515 5.48234C55.0435 5.45234 55.0255 5.43534 55.0045 5.42634C54.9445 5.38434 54.8435 5.39334 54.8165 5.48534C54.2025 7.54134 52.9725 9.36734 51.3955 10.8093C50.5585 11.5743 49.6295 12.2483 48.6695 12.8493C47.7245 13.4413 46.7005 14.0853 45.6435 14.4553C45.4235 14.5323 45.5675 14.8623 45.7665 14.7463C45.7865 14.7343 45.8085 14.7243 45.8285 14.7123C47.3445 15.3723 48.8115 16.0933 50.1145 17.1283C51.4395 18.1803 52.6105 19.4653 53.4835 20.9173C53.9915 21.7603 54.3665 22.6483 54.6975 23.5733C54.7935 23.8393 55.2085 23.7343 55.1275 23.4553C55.1235 23.4423 55.1185 23.4303 55.1155 23.4173C56.1845 19.2063 59.7495 15.5583 64.0395 14.6483C64.0485 14.6493 64.0575 14.6503 64.0665 14.6513C64.2755 14.6623 64.2755 14.3343 64.0665 14.3223Z" fill="#FFC938"/>
<path d="M16.8955 7.08933C15.0955 6.98633 13.5845 5.65333 12.3835 4.42433C11.1885 3.19933 10.1785 1.73033 9.73048 0.063326C9.72448 0.039326 9.70949 0.0253273 9.69349 0.0193273C9.64549 -0.0146727 9.56547 -0.00667568 9.54347 0.0663243C9.05547 1.70032 8.07847 3.15133 6.82447 4.29833C6.15947 4.90633 5.42148 5.44232 4.65748 5.91932C3.90548 6.38932 3.09247 6.90233 2.25147 7.19533C2.07647 7.25633 2.1915 7.51832 2.3495 7.42632C2.3655 7.41732 2.38248 7.40832 2.39848 7.39932C3.60348 7.92332 4.76949 8.49733 5.80549 9.31933C6.85849 10.1553 7.78947 11.1773 8.48347 12.3313C8.88747 13.0013 9.1855 13.7073 9.4485 14.4423C9.5245 14.6543 9.85448 14.5703 9.79048 14.3483C9.78748 14.3383 9.7835 14.3283 9.7805 14.3183C10.6295 10.9713 13.4635 8.07133 16.8735 7.34833C16.8805 7.34833 16.8875 7.35032 16.8955 7.35032C17.0625 7.35932 17.0625 7.09833 16.8955 7.08933Z" fill="#FFC938"/>
<path d="M52.4275 39.9784C51.1995 39.9084 50.1695 38.9994 49.3505 38.1604C48.5355 37.3254 47.8465 36.3234 47.5415 35.1864C47.5375 35.1704 47.5275 35.1604 47.5165 35.1564C47.4835 35.1334 47.4295 35.1384 47.4145 35.1884C47.0815 36.3034 46.4155 37.2924 45.5595 38.0744C45.1055 38.4894 44.6025 38.8544 44.0815 39.1804C43.5685 39.5014 43.0135 39.8504 42.4405 40.0504C42.3215 40.0924 42.3995 40.2714 42.5065 40.2084C42.5175 40.2024 42.5285 40.1964 42.5405 40.1904C43.3625 40.5484 44.1575 40.9394 44.8645 41.5004C45.5825 42.0704 46.2175 42.7674 46.6905 43.5544C46.9655 44.0114 47.1685 44.4934 47.3485 44.9944C47.4005 45.1384 47.6255 45.0814 47.5815 44.9304C47.5795 44.9234 47.5765 44.9164 47.5745 44.9094C48.1535 42.6264 50.0865 40.6494 52.4115 40.1564C52.4165 40.1564 52.4215 40.1574 52.4265 40.1584C52.5415 40.1624 52.5415 39.9844 52.4275 39.9784Z" fill="#FFC938"/>
<path d="M42.3384 52.0083C41.7244 51.9733 41.2094 51.5183 40.7994 51.0993C40.3914 50.6813 40.0474 50.1803 39.8944 49.6123C39.8924 49.6043 39.8874 49.5993 39.8814 49.5973C39.8654 49.5863 39.8374 49.5883 39.8304 49.6133C39.6634 50.1703 39.3304 50.6653 38.9034 51.0563C38.6764 51.2633 38.4254 51.4463 38.1644 51.6093C37.9084 51.7693 37.6304 51.9443 37.3444 52.0443C37.2844 52.0653 37.3234 52.1543 37.3774 52.1233C37.3834 52.1203 37.3884 52.1173 37.3944 52.1143C37.8054 52.2933 38.2034 52.4883 38.5564 52.7693C38.9154 53.0543 39.2324 53.4033 39.4694 53.7963C39.6074 54.0253 39.7084 54.2653 39.7984 54.5163C39.8244 54.5883 39.9364 54.5603 39.9154 54.4843C39.9144 54.4813 39.9134 54.4773 39.9124 54.4743C40.2024 53.3333 41.1684 52.3443 42.3314 52.0973C42.3344 52.0973 42.3364 52.0983 42.3394 52.0983C42.3954 52.1003 42.3954 52.0113 42.3384 52.0083Z" fill="#FFC938"/>
<path d="M18.5325 47.6363C16.2685 47.5073 14.3665 45.8303 12.8565 44.2833C11.3525 42.7423 10.0825 40.8943 9.5185 38.7963C9.5105 38.7663 9.4925 38.7493 9.4715 38.7403C9.4115 38.6983 9.31051 38.7073 9.28351 38.7993C8.66951 40.8553 7.43949 42.6813 5.86249 44.1233C5.02549 44.8883 4.09651 45.5623 3.13651 46.1633C2.19151 46.7553 1.16751 47.3993 0.11051 47.7693C-0.10949 47.8463 0.0344957 48.1763 0.233496 48.0603C0.253496 48.0483 0.275507 48.0383 0.295507 48.0263C1.81151 48.6863 3.27852 49.4073 4.58152 50.4423C5.90652 51.4943 7.07751 52.7803 7.95051 54.2313C8.45851 55.0753 8.8335 55.9623 9.1645 56.8873C9.2605 57.1533 9.67552 57.0483 9.59452 56.7683C9.59052 56.7553 9.58549 56.7423 9.58249 56.7303C10.6515 52.5193 14.2165 48.8713 18.5065 47.9613C18.5155 47.9623 18.5245 47.9633 18.5335 47.9643C18.7425 47.9763 18.7425 47.6483 18.5325 47.6363Z" fill="#FFC938"/>
</svg>
