<svg width="28" height="37" viewBox="0 0 28 37" fill="none" xmlns="http://www.w3.org/2000/svg">
<path d="M15.51 35.9686C15.577 33.54 15.9095 31.021 17.0975 28.9226C18.1393 27.082 19.8915 25.6423 21.899 25.533C22.4736 25.5015 22.4649 24.6299 21.9075 24.5608C17.6296 24.0315 14.5376 19.5774 15.2006 14.8732C15.2851 14.2721 14.4795 13.9831 14.3534 14.6071C13.5266 18.6979 11.6379 23.8197 7.26224 24.2909C6.81612 24.339 6.6033 25.1572 7.13676 25.2446C11.7232 25.9978 15.0031 30.7223 14.2784 35.8334C14.1916 36.4447 15.0379 36.7165 15.1257 36.0994C15.5175 33.3358 14.9356 30.4831 13.4018 28.2408C11.9542 26.1242 9.75404 24.6996 7.37879 24.3094C7.33681 24.6275 7.29528 24.9455 7.2533 25.2631C9.33973 25.0387 11.1649 23.7669 12.4665 21.9806C13.954 19.9393 14.691 17.3931 15.2006 14.8732C14.9182 14.7847 14.6358 14.6961 14.3534 14.6071C13.9834 17.2314 14.5628 19.9164 16.0529 22.0144C17.4756 24.0175 19.6202 25.2506 21.8986 25.5325C21.9014 25.2083 21.9042 24.8845 21.9071 24.5603C19.6899 24.681 17.7606 26.1278 16.5237 28.1164C15.1041 30.399 14.7031 33.2524 14.6288 35.9604C14.6123 36.5869 15.493 36.5941 15.51 35.9686Z" fill="#F6B307"/>
<path d="M22.722 16.5815C22.4936 13.1849 24.4462 9.82346 27.3855 8.71697C27.9162 8.51743 27.7093 7.59832 27.1594 7.77775C25.8287 8.2119 24.6274 7.0318 24.0528 5.80662C23.3939 4.40132 23.1847 2.78995 22.6204 1.33833C22.4094 0.795431 21.7403 1.20619 21.8121 1.70607C22.175 4.2322 20.7989 6.7757 18.6844 7.75037C18.2453 7.95265 18.5116 8.62631 18.8989 8.65788C20.11 8.75694 21.0767 9.76145 21.5685 10.9368C22.1669 12.3673 22.1071 14.0211 21.9792 15.5532C21.927 16.1764 22.8083 16.1807 22.8599 15.5609C23.0115 13.7417 23.0171 11.7822 22.189 10.1411C21.5071 8.79005 20.3253 7.80117 18.9074 7.68523C18.9787 7.98774 19.0505 8.29024 19.1218 8.59275C21.6255 7.4387 23.084 4.37965 22.6639 1.45392C22.3946 1.5765 22.1253 1.69908 21.8556 1.82166C22.5224 3.53668 22.6807 5.52386 23.7213 7.04673C24.5697 8.28791 25.9549 9.18281 27.3851 8.71648C27.3098 8.40325 27.2346 8.09001 27.159 7.77726C23.8688 9.01534 21.5819 12.7302 21.8403 16.5733C21.8829 17.193 22.7641 17.2065 22.722 16.5815Z" fill="#F6B307"/>
<path d="M4.42049 18.066C3.85373 18.0611 3.84435 19.0333 4.412 19.0382C4.97877 19.0432 4.98858 18.071 4.42049 18.066Z" fill="#F6B307"/>
<path d="M4.89897 17.9439C5.02179 15.9344 6.90984 14.9252 8.34605 14.1653C8.72833 13.963 8.56533 13.2124 8.13157 13.2577C6.1391 13.4659 5.13797 11.2565 4.70663 9.46234C4.60337 9.03268 3.92797 8.95969 3.85714 9.45492C3.63242 11.0309 2.85109 12.9506 1.14895 12.8939C0.634704 12.8768 0.568297 13.6724 1.02347 13.8475C2.58872 14.4494 3.75632 16.1046 3.88436 17.9331C3.92784 18.5518 4.80898 18.5653 4.76511 17.9408C4.60492 15.659 3.22624 13.6655 1.26551 12.9119C1.22353 13.23 1.182 13.548 1.14002 13.8656C3.23577 13.9354 4.41585 11.7431 4.70394 9.71996C4.42078 9.71749 4.13761 9.71501 3.85445 9.71254C4.13875 10.8953 4.55599 12.0861 5.33693 12.982C6.05335 13.804 7.07572 14.3379 8.12265 14.2289C8.0513 13.9264 7.97952 13.6239 7.90817 13.3214C6.13657 14.2592 4.16484 15.521 4.01778 17.9357C3.98017 18.561 4.86094 18.5668 4.89897 17.9439Z" fill="#F6B307"/>
<path d="M4.05104 18.2116C4.04926 18.214 4.04791 18.2164 4.04657 18.2194C4.02772 18.2591 4.01063 18.2997 3.99837 18.3424C3.99202 18.3637 3.98897 18.4099 3.98849 18.4143C3.98755 18.4211 3.97925 18.4643 3.97949 18.4871C3.98041 18.5328 3.98794 18.5786 3.99459 18.6238C3.995 18.6268 3.99542 18.6297 3.99627 18.6326C3.9967 18.6341 3.99713 18.6355 3.99756 18.637C3.99799 18.638 3.99798 18.6385 3.99842 18.6394C4.00874 18.6677 4.0311 18.7292 4.04231 18.757C4.04361 18.7599 4.04447 18.7623 4.0462 18.7653C4.0475 18.7677 4.0488 18.7701 4.05054 18.7726C4.07401 18.8083 4.09659 18.8454 4.12361 18.8782C4.12535 18.8802 4.1271 18.8822 4.12884 18.8841C4.12971 18.8851 4.13103 18.8861 4.1319 18.8871C4.14676 18.9003 4.16818 18.9185 4.17736 18.9263C4.19004 18.9371 4.20795 18.9538 4.22325 18.9661C4.22544 18.9676 4.22763 18.9696 4.22982 18.971C4.23069 18.9715 4.23201 18.9725 4.23288 18.973C4.23288 18.973 4.23376 18.9735 4.23464 18.974C4.23464 18.974 4.23551 18.9745 4.23639 18.975C4.27147 18.9918 4.30613 19.0082 4.34121 19.025C4.3434 19.026 4.34604 19.027 4.34823 19.028C4.38512 19.04 4.49908 19.0517 4.47269 19.048C4.47577 19.0485 4.47841 19.0486 4.4815 19.0486C4.52335 19.0465 4.56568 19.0415 4.60628 19.0312C4.60761 19.0307 4.60894 19.0303 4.61026 19.0298C4.64738 19.016 4.68408 18.9983 4.71903 18.9802C4.72213 18.9787 4.72479 18.9768 4.72745 18.9749C4.77924 18.9447 4.82056 18.9033 4.85229 18.8511C4.89145 18.8042 4.91835 18.7496 4.93256 18.6865C4.95162 18.622 4.95482 18.5574 4.94218 18.4926C4.9401 18.4279 4.92301 18.3675 4.89135 18.3113C4.86874 18.2786 4.84613 18.2453 4.82351 18.2125C4.76899 18.1518 4.70462 18.1094 4.6304 18.0859C4.59126 18.0797 4.55255 18.0736 4.51341 18.0674C4.43414 18.0672 4.35952 18.0884 4.29044 18.132C4.28777 18.1344 4.28468 18.1359 4.28158 18.1378C4.31696 18.1216 4.35188 18.1058 4.38726 18.0896C4.38372 18.091 4.38019 18.0925 4.37622 18.0929C4.41546 18.0874 4.45427 18.0819 4.49351 18.0765C4.48954 18.0769 4.48558 18.0769 4.48162 18.0763C4.52076 18.0825 4.55947 18.0887 4.59861 18.0949C4.59377 18.0939 4.58894 18.0924 4.58412 18.0904C4.6192 18.1072 4.65385 18.1235 4.68894 18.1404C4.68367 18.1379 4.67886 18.1345 4.67405 18.1305C4.70377 18.1561 4.73306 18.1816 4.76234 18.2071C4.7571 18.2027 4.75274 18.1973 4.74839 18.1915C4.771 18.2247 4.79361 18.2575 4.81623 18.2902C4.81231 18.2849 4.80928 18.279 4.80713 18.2727C4.82177 18.3117 4.83596 18.3502 4.8506 18.3892C4.84844 18.3839 4.84717 18.378 4.84634 18.3722C4.85125 18.4155 4.85616 18.4583 4.86106 18.5016C4.86066 18.4972 4.8607 18.4929 4.86118 18.488C4.85552 18.5312 4.84986 18.5739 4.8442 18.6172C4.84467 18.6133 4.84559 18.6094 4.84694 18.606C4.83163 18.6448 4.81676 18.683 4.80144 18.7218C4.80324 18.7179 4.80504 18.714 4.80771 18.7102C4.84035 18.6546 4.85849 18.5944 4.8617 18.5298C4.87547 18.4653 4.8734 18.4006 4.85547 18.3358C4.84237 18.2725 4.81642 18.2173 4.77808 18.1698C4.74728 18.1166 4.70669 18.0744 4.65543 18.0434C4.62035 18.0265 4.5857 18.0102 4.55061 17.9933C4.47287 17.9693 4.39492 17.9686 4.31633 17.9913C4.28096 18.0075 4.24603 18.0232 4.21065 18.0395C4.14423 18.0812 4.09087 18.139 4.05104 18.2116Z" fill="#F6B307"/>
</svg>
