<svg width="49" height="55" viewBox="0 0 49 55" fill="none" xmlns="http://www.w3.org/2000/svg">
<path d="M27.204 53.6305C27.3179 49.9195 27.9041 46.0709 30.0137 42.8669C31.8635 40.0566 34.9785 37.8605 38.5506 37.6978C39.573 37.651 39.5556 36.319 38.5636 36.2123C30.9497 35.394 25.4377 28.5808 26.6071 21.3938C26.7562 20.4754 25.3219 20.0321 25.0988 20.9854C23.6366 27.2347 20.2868 35.0572 12.5012 35.7676C11.7075 35.8402 11.3305 37.09 12.28 37.2246C20.4435 38.3857 26.2905 45.6125 25.0121 53.4212C24.859 54.3551 26.3656 54.7723 26.5204 53.8295C27.2117 49.6074 26.1698 45.2468 23.4356 41.817C20.8548 38.5794 16.9364 36.3977 12.7087 35.7962C12.6347 36.2821 12.5615 36.768 12.4875 37.2532C16.1998 36.9149 19.445 34.9755 21.7573 32.2487C24.3999 29.1326 25.7059 25.2434 26.6071 21.3938C26.1043 21.2579 25.6016 21.122 25.0988 20.9854C24.4462 24.9947 25.4833 29.099 28.1395 32.3082C30.6756 35.3723 34.4947 37.2612 38.5498 37.6971C38.5542 37.2016 38.5585 36.7069 38.5628 36.2115C34.6175 36.391 31.1874 38.5977 28.9907 41.6338C26.4695 45.1186 25.7621 49.4781 25.6359 53.616C25.6079 54.5733 27.1753 54.5863 27.204 53.6305Z" fill="#F6B307"/>
<path d="M39.9954 24.0208C39.5815 18.83 43.0489 13.6976 48.277 12.0132C49.2209 11.7095 48.8508 10.3045 47.8726 10.5775C45.5055 11.238 43.3652 9.43204 42.34 7.55857C41.1643 5.40969 40.7885 2.94688 39.7812 0.72741C39.4044 -0.102655 38.2147 0.523562 38.3436 1.28758C38.9949 5.14857 36.5518 9.03229 32.791 10.517C32.01 10.8252 32.4854 11.8552 33.1746 11.9043C35.3301 12.0583 37.0527 13.5954 37.9304 15.3926C38.9983 17.5799 38.8955 20.1069 38.6713 22.4478C38.5799 23.4001 40.1481 23.4086 40.2387 22.4615C40.5043 19.6819 40.5101 16.6876 39.0328 14.178C37.8164 12.112 35.7112 10.5983 33.1876 10.418C33.3152 10.8804 33.4437 11.3428 33.5713 11.8052C38.0241 10.0472 40.6129 5.37589 39.8588 0.904139C39.3799 1.09086 38.901 1.27759 38.4213 1.46431C39.6116 4.08651 39.8977 7.12348 41.7529 9.45287C43.2653 11.3514 45.7323 12.7219 48.2763 12.0125C48.1417 11.5337 48.0072 11.0548 47.8719 10.5768C42.0197 12.4614 37.9582 18.1331 38.4265 24.0064C38.5037 24.9534 40.0717 24.976 39.9954 24.0208Z" fill="#F6B307"/>
<path d="M7.43058 26.2491C6.42199 26.2403 6.40745 27.7258 7.4176 27.7347C8.42619 27.7435 8.44152 26.2579 7.43058 26.2491Z" fill="#F6B307"/>
<path d="M8.28178 26.0635C8.49592 22.993 11.8536 21.455 14.4077 20.2969C15.0875 19.9887 14.7958 18.8414 14.024 18.9097C10.4788 19.2234 8.6924 15.845 7.92087 13.1024C7.73616 12.4456 6.53412 12.3326 6.40916 13.0892C6.01272 15.497 4.62654 18.4287 1.59741 18.3383C0.682245 18.311 0.565819 19.5268 1.37621 19.7953C4.16294 20.7185 6.24435 23.2504 6.47622 26.0448C6.55495 26.9903 8.12301 27.013 8.04357 26.0585C7.75349 22.5713 5.2957 19.522 1.80485 18.3661C1.73086 18.8521 1.65764 19.338 1.58365 19.8231C5.31326 19.9345 7.40843 16.587 7.91665 13.4961C7.41275 13.4917 6.90884 13.4872 6.40494 13.4828C6.91346 15.2909 7.65856 17.1114 9.05025 18.4822C10.3269 19.7398 12.1475 20.558 14.0103 20.3938C13.8826 19.9313 13.7542 19.4689 13.6266 19.0065C10.476 20.4357 6.97004 22.3594 6.71365 26.0491C6.64809 27.0045 8.21547 27.0152 8.28178 26.0635Z" fill="#F6B307"/>
<path d="M6.77345 26.4707C6.77028 26.4744 6.7679 26.4781 6.76551 26.4826C6.73206 26.5432 6.70174 26.6053 6.68001 26.6705C6.66876 26.7031 6.66343 26.7736 6.66259 26.7803C6.66093 26.7907 6.64625 26.8566 6.64673 26.8916C6.64847 26.9614 6.66196 27.0313 6.6739 27.1005C6.67464 27.105 6.67539 27.1095 6.67692 27.1139C6.67768 27.1162 6.67845 27.1184 6.67921 27.1206C6.67998 27.1221 6.67998 27.1229 6.68075 27.1244C6.69918 27.1676 6.73911 27.2616 6.75911 27.3041C6.76143 27.3085 6.76296 27.3123 6.76606 27.3168C6.76838 27.3205 6.7707 27.3242 6.7738 27.328C6.81565 27.3826 6.8559 27.4394 6.90406 27.4896C6.90716 27.4926 6.91027 27.4956 6.91338 27.4986C6.91494 27.5001 6.91727 27.5016 6.91883 27.5031C6.9453 27.5233 6.98346 27.5512 6.99981 27.5632C7.0224 27.5797 7.0543 27.6053 7.08157 27.6241C7.08547 27.6263 7.08936 27.6293 7.09326 27.6316C7.09482 27.6324 7.09716 27.6339 7.09872 27.6346C7.09872 27.6346 7.10028 27.6354 7.10184 27.6361C7.10184 27.6361 7.1034 27.6369 7.10496 27.6377C7.16744 27.6635 7.22914 27.6885 7.29161 27.7143C7.29551 27.7158 7.3002 27.7174 7.30411 27.7189C7.36978 27.7373 7.57261 27.7554 7.52563 27.7498C7.53111 27.7506 7.53582 27.7506 7.5413 27.7507C7.61578 27.7476 7.69109 27.7401 7.76333 27.7244C7.76569 27.7237 7.76804 27.7229 7.7704 27.7222C7.83642 27.7012 7.9017 27.6743 7.96386 27.6466C7.96936 27.6445 7.97409 27.6415 7.97882 27.6386C8.07092 27.5926 8.14436 27.5294 8.2007 27.4496C8.27029 27.3782 8.31805 27.2947 8.34319 27.1983C8.37696 27.0998 8.38253 27.0011 8.35988 26.9021C8.35604 26.8032 8.3255 26.7109 8.26904 26.6249C8.22872 26.5748 8.18841 26.524 8.14809 26.4738C8.05094 26.3809 7.9363 26.316 7.80417 26.2799C7.7345 26.2704 7.66561 26.2609 7.59594 26.2514C7.45487 26.2509 7.32214 26.2831 7.19929 26.3497C7.19456 26.3533 7.18906 26.3555 7.18354 26.3584C7.24646 26.3337 7.30858 26.3098 7.3715 26.2851C7.36521 26.2872 7.35892 26.2894 7.35186 26.2901C7.42168 26.2818 7.49072 26.2735 7.56055 26.2652C7.55349 26.2658 7.54644 26.2658 7.53939 26.265C7.60906 26.2745 7.67794 26.284 7.74761 26.2935C7.73901 26.292 7.73041 26.2897 7.72181 26.2866C7.78429 26.3124 7.84598 26.3375 7.90845 26.3633C7.89908 26.3595 7.89051 26.3542 7.88194 26.3482C7.93489 26.3873 7.98706 26.4264 8.03923 26.4655C8.02988 26.4587 8.02212 26.4505 8.01436 26.4415C8.05467 26.4923 8.09498 26.5425 8.1353 26.5926C8.12832 26.5843 8.12291 26.5754 8.11908 26.5657C8.14521 26.6253 8.17055 26.6843 8.19668 26.7439C8.19283 26.7357 8.19056 26.7268 8.18907 26.7178C8.19789 26.784 8.20673 26.8495 8.21556 26.9157C8.21483 26.909 8.21489 26.9023 8.21574 26.8949C8.20576 26.9609 8.19578 27.0262 8.1858 27.0922C8.18663 27.0863 8.18825 27.0803 8.19065 27.0752C8.16349 27.1344 8.13711 27.1928 8.10994 27.252C8.11313 27.2461 8.11632 27.2402 8.12107 27.2343C8.17903 27.1493 8.21118 27.0575 8.21675 26.9588C8.24112 26.8602 8.23728 26.7614 8.20523 26.6623C8.18178 26.5655 8.13549 26.4812 8.06716 26.4085C8.01223 26.3271 7.9399 26.2625 7.84862 26.2149C7.78615 26.1891 7.72445 26.1641 7.66197 26.1383C7.52358 26.1014 7.38487 26.1002 7.24506 26.1346C7.18215 26.1593 7.12002 26.1833 7.05711 26.208C6.93899 26.2716 6.84417 26.3599 6.77345 26.4707Z" fill="#F6B307"/>
</svg>
