<svg width="1440" height="221" viewBox="0 0 1440 221" fill="none" xmlns="http://www.w3.org/2000/svg">
<path fill-rule="evenodd" clip-rule="evenodd" d="M0 109.031L40 99.9703C80 90.262 160 72.1398 240 48.84C320 25.5401 310 25.5436 389 8.29915C468 -8.94533 597.5 4.83543 619.5 12.4648C701 23.0005 808 51.9864 888 66.2252C968 79.8168 1113 82.2187 1200 82.2187C1255.69 82.2187 1360 90.262 1400 99.9703L1440 109.031V221H1400C1360 221 1280 221 1200 221C1120 221 1040 221 960 221C880 221 800 221 720 221C640 221 560 221 480 221C400 221 320 221 240 221C160 221 80 221 40 221H0V109.031Z" fill="#D8BDCF" fill-opacity="0.34"/>
</svg>
